# xmcd CD database file
#
# Track frame offsets:
#	150
#	16089
#	37470
#	56620
#	76061
#	96941
#	115738
#	128656
#	140221
#	153318
#	165044
#	177861
#	192011
#	205474
#	220228
#	233406
#	246704
#	259241
#	272495
#	285974
#	299847
#	313604
#
# Disc length: 4351 seconds
#
# Revision: 0
# Processed by: cddbd v1.5.2PL0 Copyright (c) Steve Scherf et al.
# Submitted via: CDex 1.70beta2
#
DISCID=3e10fd16
DTITLE=Various Artist - Jazz Roads CD190 - Swing - All-Star Groups Vol.5 (1944-46)
DYEAR=2006
DGENRE=Jazz
TTITLE0=Sidney De Paris’ Blue Note Jazzmen - Everybody Loves My Baby
TTITLE1=Sidney De Paris’ Blue Note Jazzmen - Ballin' The Jack
TTITLE2=Sidney De Paris’ Blue Note Jazzmen - Who's Sorry Now
TTITLE3=Sidney De Paris’ Blue Note Jazzmen - The Call Of The Blues
TTITLE4=Red Norvo All Star Septet - Russian Lullaby
TTITLE5=Red Norvo All Star Septet - I Got Rhythm
TTITLE6=Cozy Cole’s All Stars - Memories Of You
TTITLE7=Cozy Cole’s All Stars - Comes The Don
TTITLE8=Cozy Cole’s All Stars - When Day Is Done
TTITLE9=Cozy Cole’s All Stars - The Beat (The Drag)
TTITLE10=Sir Walter Thomas And His Band - The Bottle's Empty
TTITLE11=Sir Walter Thomas And His Band - Save It, Pretty Mama
TTITLE12=Sir Walter Thomas And His Band - For Lovers Only
TTITLE13=Sir Walter Thomas And His Band - Peach Tree Street Blues
TTITLE14=Pete Johnson’s Housewarming - Pete's Lonesome Blues
TTITLE15=Pete Johnson’s Housewarming - Mr. Drum Meets Mr. Piano
TTITLE16=Pete Johnson’s Housewarming - Mutiny In The Doghouse
TTITLE17=Pete Johnson’s Housewarming - Mr. Clarinet Knocks Twice
TTITLE18=Pete Johnson’s Housewarming - Ben Rides Out
TTITLE19=Pete Johnson’s Housewarming - Page Mr. Trumpet
TTITLE20=Pete Johnson’s Housewarming - J.C. From K.C.
TTITLE21=Pete Johnson’s Housewarming - Pete's Housewarming
EXTD=YEAR: 2006
EXTT0=
EXTT1=
EXTT2=
EXTT3=
EXTT4=
EXTT5=
EXTT6=
EXTT7=
EXTT8=
EXTT9=
EXTT10=
EXTT11=
EXTT12=
EXTT13=
EXTT14=
EXTT15=
EXTT16=
EXTT17=
EXTT18=
EXTT19=
EXTT20=
EXTT21=
PLAYORDER=
